<svg id="visual" viewBox="0 0 900 300" width="900" height="300" xmlns="http://www.w3.org/2000/svg" xmlns:xlink="http://www.w3.org/1999/xlink" version="1.1"><rect x="0" y="0" width="900" height="300" fill="#001220"></rect><path d="M0 152L15 154.5C30 157 60 162 90 161.2C120 160.3 150 153.7 180 150.8C210 148 240 149 270 150.7C300 152.3 330 154.7 360 152.3C390 150 420 143 450 137.3C480 131.7 510 127.3 540 130.5C570 133.7 600 144.3 630 146.7C660 149 690 143 720 141C750 139 780 141 810 142.8C840 144.7 870 146.3 885 147.2L900 148L900 0L885 0C870 0 840 0 810 0C780 0 750 0 720 0C690 0 660 0 630 0C600 0 570 0 540 0C510 0 480 0 450 0C420 0 390 0 360 0C330 0 300 0 270 0C240 0 210 0 180 0C150 0 120 0 90 0C60 0 30 0 15 0L0 0Z" fill="#7c5c6a"></path><path d="M0 112L15 113.8C30 115.7 60 119.3 90 119C120 118.7 150 114.3 180 111.3C210 108.3 240 106.7 270 109.7C300 112.7 330 120.3 360 125.3C390 130.3 420 132.7 450 126.5C480 120.3 510 105.7 540 106C570 106.3 600 121.7 630 126.8C660 132 690 127 720 120.8C750 114.7 780 107.3 810 109.3C840 111.3 870 122.7 885 128.3L900 134L900 0L885 0C870 0 840 0 810 0C780 0 750 0 720 0C690 0 660 0 630 0C600 0 570 0 540 0C510 0 480 0 450 0C420 0 390 0 360 0C330 0 300 0 270 0C240 0 210 0 180 0C150 0 120 0 90 0C60 0 30 0 15 0L0 0Z" fill="#a86c73"></path><path d="M0 95L15 92.2C30 89.3 60 83.7 90 81.5C120 79.3 150 80.7 180 84C210 87.3 240 92.7 270 94C300 95.3 330 92.7 360 91.3C390 90 420 90 450 91.3C480 92.7 510 95.3 540 91.7C570 88 600 78 630 76.3C660 74.7 690 81.3 720 82.5C750 83.7 780 79.3 810 77.5C840 75.7 870 76.3 885 76.7L900 77L900 0L885 0C870 0 840 0 810 0C780 0 750 0 720 0C690 0 660 0 630 0C600 0 570 0 540 0C510 0 480 0 450 0C420 0 390 0 360 0C330 0 300 0 270 0C240 0 210 0 180 0C150 0 120 0 90 0C60 0 30 0 15 0L0 0Z" fill="#ce8071"></path><path d="M0 65L15 63.3C30 61.7 60 58.3 90 57C120 55.7 150 56.3 180 54.3C210 52.3 240 47.7 270 48.5C300 49.3 330 55.7 360 58C390 60.3 420 58.7 450 56.3C480 54 510 51 540 50.7C570 50.3 600 52.7 630 57.2C660 61.7 690 68.3 720 68C750 67.7 780 60.3 810 55C840 49.7 870 46.3 885 44.7L900 43L900 0L885 0C870 0 840 0 810 0C780 0 750 0 720 0C690 0 660 0 630 0C600 0 570 0 540 0C510 0 480 0 450 0C420 0 390 0 360 0C330 0 300 0 270 0C240 0 210 0 180 0C150 0 120 0 90 0C60 0 30 0 15 0L0 0Z" fill="#e89c67"></path><path d="M0 26L15 27.2C30 28.3 60 30.7 90 33.8C120 37 150 41 180 43.3C210 45.7 240 46.3 270 44C300 41.7 330 36.3 360 36.2C390 36 420 41 450 42.2C480 43.3 510 40.7 540 38.7C570 36.7 600 35.3 630 37C660 38.7 690 43.3 720 44.2C750 45 780 42 810 38.2C840 34.3 870 29.7 885 27.3L900 25L900 0L885 0C870 0 840 0 810 0C780 0 750 0 720 0C690 0 660 0 630 0C600 0 570 0 540 0C510 0 480 0 450 0C420 0 390 0 360 0C330 0 300 0 270 0C240 0 210 0 180 0C150 0 120 0 90 0C60 0 30 0 15 0L0 0Z" fill="#f0c05e"></path></svg>